<svg xmlns="http://www.w3.org/2000/svg" viewBox="0 0 37.88 29.27">
  <defs>
    <style>
      .cls-1, .cls-2 {
        fill: #fcfcfc;
      }

      .cls-1 {
        stroke: #fcfcfc;
        stroke-miterlimit: 10;
        stroke-width: 0.59px;
      }
    </style>
  </defs>
  <title>create-icon-white_1</title>
  <g id="Layer_2" data-name="Layer 2">
    <g id="Header">
      <g>
        <path class="cls-1" d="M2.64,23V9.4H.29V23A6,6,0,0,0,6.24,29H23.79V26.63H6.24A3.6,3.6,0,0,1,2.64,23Z"/>
        <path class="cls-2" d="M33.12,0H9.76A4.77,4.77,0,0,0,5,4.77V19.51a4.77,4.77,0,0,0,4.77,4.77H33.12a4.77,4.77,0,0,0,4.77-4.77V4.77A4.77,4.77,0,0,0,33.12,0ZM29.66,13a.67.67,0,0,1-.67.67H23v6a.67.67,0,0,1-.67.67H20.54a.67.67,0,0,1-.67-.67v-6h-6a.67.67,0,0,1-.67-.67V11.24a.67.67,0,0,1,.67-.67h6v-6a.67.67,0,0,1,.67-.67h1.79a.67.67,0,0,1,.67.67v6h6a.67.67,0,0,1,.67.67Z"/>
      </g>
    </g>
  </g>
</svg>
