<svg xmlns="http://www.w3.org/2000/svg" viewBox="0 0 98.72 53.14">
  <defs>
    <style>
      .cls-1 {
        fill: #fff;
      }
    </style>
  </defs>
  <title>flashcards-logo</title>
  <g id="Layer_2" data-name="Layer 2">
    <g id="Header">
      <g id="Logo">
        <g>
          <path class="cls-1" d="M5,14.45H9.42V18.1H5V31.31H1.31V18.1H0V14.45H1.31V7.62A7.91,7.91,0,0,1,2.42,4.09,8.06,8.06,0,0,1,5,1.45v0A8.1,8.1,0,0,1,7,.5,7.92,7.92,0,0,1,9.42.14V3.79a4.32,4.32,0,0,0-1.74.35A4.49,4.49,0,0,0,5.31,6.51,4.28,4.28,0,0,0,5,8.24Z"/>
          <path class="cls-1" d="M13.71.18h3.65V31.1H13.71Z"/>
          <path class="cls-1" d="M30.55,12.61a9.1,9.1,0,0,1,3.66.74,9.76,9.76,0,0,1,3,2,9.37,9.37,0,0,1,2,3A9.27,9.27,0,0,1,40,22.07v9.17H36.34V29.53A10,10,0,0,1,33.69,31a9.45,9.45,0,0,1-6.78-.22,9.46,9.46,0,0,1-5-5,9.13,9.13,0,0,1-.74-3.67,9.28,9.28,0,0,1,.74-3.68,9.41,9.41,0,0,1,5-5A9.1,9.1,0,0,1,30.55,12.61Zm0,15.23a5.49,5.49,0,0,0,2.25-.46,5.91,5.91,0,0,0,3.06-3.08,5.5,5.5,0,0,0,.46-2.23,5.58,5.58,0,0,0-.46-2.26,5.9,5.9,0,0,0-3.06-3.08,5.69,5.69,0,0,0-4.5,0,5.9,5.9,0,0,0-3.06,3.08,5.57,5.57,0,0,0-.46,2.26,5.49,5.49,0,0,0,.46,2.23,5.9,5.9,0,0,0,3.06,3.08A5.49,5.49,0,0,0,30.57,27.84Z"/>
          <path class="cls-1" d="M54.09,22.64a6.13,6.13,0,0,1,.78,1.54,4.84,4.84,0,0,1,.25,1.75,5.12,5.12,0,0,1-.53,2.16,5.92,5.92,0,0,1-1.31,1.74A5.79,5.79,0,0,1,51.36,31a6.05,6.05,0,0,1-2.3.37A6.39,6.39,0,0,1,46,30.46a5.43,5.43,0,0,1-2.07-2.16l3-2.13a2,2,0,0,0,.78,1.08,2.32,2.32,0,0,0,1.42.44,2.36,2.36,0,0,0,1.61-.51,1.68,1.68,0,0,0,.69-1.36,1.27,1.27,0,0,0,0-.35V25.4a.28.28,0,0,1,0-.12.29.29,0,0,0,0-.12,2.07,2.07,0,0,0-.92-1,1.43,1.43,0,0,0-.32-.14l0,0a12,12,0,0,0-1.1-.55l-1.22-.57q-.62-.3-1.22-.64a6.72,6.72,0,0,1-1.13-.8v0l-.11-.11a5.23,5.23,0,0,1-1.17-1.65,4.43,4.43,0,0,1-.39-2,4.73,4.73,0,0,1,.5-2,5.22,5.22,0,0,1,1.22-1.59A5.76,5.76,0,0,1,47.33,13a5.66,5.66,0,0,1,2.2-.35,6.22,6.22,0,0,1,2.75.74A5.18,5.18,0,0,1,54.2,15.2l-3,2.05a1.81,1.81,0,0,0-.69-.67,2.08,2.08,0,0,0-1.08-.28,2.15,2.15,0,0,0-1.4.39,1.24,1.24,0,0,0-.58,1,.6.6,0,0,0,0,.25,1.24,1.24,0,0,0,.35.67,2.16,2.16,0,0,0,.71.46q.67.39,1.54.8t1.75.9a5.5,5.5,0,0,1,1.28.81l.18.18A7.28,7.28,0,0,1,54.09,22.64Z"/>
          <path class="cls-1" d="M71.55,13.92a8.12,8.12,0,0,1,2.66,2.89,7.94,7.94,0,0,1,1,3.91V31.35H71.55V20.72A4.31,4.31,0,0,0,71.2,19a4.62,4.62,0,0,0-2.41-2.41,4.31,4.31,0,0,0-1.74-.35,4.43,4.43,0,0,0-1.75.35,4.35,4.35,0,0,0-1.43,1,4.75,4.75,0,0,0-1,1.43,4.3,4.3,0,0,0-.35,1.74V31.35H58.91V0h3.65V13.92a8.17,8.17,0,0,1,9,0Z"/>
        </g>
        <g>
          <path class="cls-1" d="M15.33,49.28a5.48,5.48,0,0,0,2.55-.6,5.84,5.84,0,0,0,1.95-1.59l2.87,2.23a9.43,9.43,0,0,1-3.19,2.63,9,9,0,0,1-4.18,1,9.1,9.1,0,0,1-3.61-.73,9.48,9.48,0,0,1-3-2,9.37,9.37,0,0,1-2-3,9.35,9.35,0,0,1,0-7.26,9.37,9.37,0,0,1,2-3,9.49,9.49,0,0,1,3-2,9.45,9.45,0,0,1,7.79.24,9.09,9.09,0,0,1,3.19,2.65L19.83,40.1a5.5,5.5,0,0,0-1.95-1.61,5.83,5.83,0,0,0-4.76-.14,5.65,5.65,0,0,0-3,3,5.69,5.69,0,0,0,0,4.4,5.64,5.64,0,0,0,1.22,1.81,5.94,5.94,0,0,0,1.82,1.23A5.45,5.45,0,0,0,15.33,49.28Z"/>
          <path class="cls-1" d="M35.32,34.26A9.1,9.1,0,0,1,39,35a9.76,9.76,0,0,1,3,2,9.37,9.37,0,0,1,2,3,9.27,9.27,0,0,1,.74,3.68v9.17H41.11V51.17a10,10,0,0,1-2.66,1.44,9.45,9.45,0,0,1-6.78-.22,9.46,9.46,0,0,1-5-5,9.13,9.13,0,0,1-.74-3.67A9.28,9.28,0,0,1,26.66,40a9.41,9.41,0,0,1,5-5A9.1,9.1,0,0,1,35.32,34.26Zm0,15.23A5.49,5.49,0,0,0,37.59,49a5.91,5.91,0,0,0,3.06-3.08,5.5,5.5,0,0,0,.46-2.23,5.58,5.58,0,0,0-.46-2.26,5.9,5.9,0,0,0-3.06-3.08,5.69,5.69,0,0,0-4.5,0A5.9,5.9,0,0,0,30,41.45a5.57,5.57,0,0,0-.46,2.26A5.49,5.49,0,0,0,30,45.94,5.9,5.9,0,0,0,33.09,49,5.49,5.49,0,0,0,35.34,49.49Z"/>
          <path class="cls-1" d="M61.13,35.62a7.73,7.73,0,0,1,2.05,2l-2.05,1.63-.78.64a4.46,4.46,0,0,0-1.58-1.42,4.44,4.44,0,0,0-3.84-.18,4.49,4.49,0,0,0-2.37,2.37,4.3,4.3,0,0,0-.35,1.74V52.89H48.55V34.26H52.2v1.36a8.08,8.08,0,0,1,2.09-1,8,8,0,0,1,4.75,0A8.09,8.09,0,0,1,61.13,35.62Z"/>
          <path class="cls-1" d="M83.62,43.61a9.2,9.2,0,0,1-.73,3.65,9.34,9.34,0,0,1-5,5,9.53,9.53,0,0,1-7.3,0,9.34,9.34,0,0,1-5-5,9.53,9.53,0,0,1,0-7.3,9.33,9.33,0,0,1,5-5,9.2,9.2,0,0,1,3.65-.73,9,9,0,0,1,3.06.51A9.71,9.71,0,0,1,80,36.21V21.75h3.65V43.61Zm-9.33,5.7a5.57,5.57,0,0,0,2.21-.44A5.69,5.69,0,0,0,80,43.61v0a5.5,5.5,0,0,0-.44-2.2,5.75,5.75,0,0,0-1.22-1.81,5.68,5.68,0,0,0-1.82-1.22,5.72,5.72,0,0,0-4.41,0,5.68,5.68,0,0,0-1.82,1.22A6,6,0,0,0,69,41.4a5.57,5.57,0,0,0,0,4.43,5.93,5.93,0,0,0,1.24,1.82,5.66,5.66,0,0,0,1.82,1.22A5.57,5.57,0,0,0,74.29,49.31Z"/>
          <path class="cls-1" d="M97.69,44.28a6.13,6.13,0,0,1,.78,1.54,4.84,4.84,0,0,1,.25,1.75,5.12,5.12,0,0,1-.53,2.16,5.92,5.92,0,0,1-1.31,1.74A5.79,5.79,0,0,1,95,52.63a6.05,6.05,0,0,1-2.3.37,6.39,6.39,0,0,1-3.06-.89A5.43,5.43,0,0,1,87.52,50l3-2.13a2,2,0,0,0,.78,1.08,2.32,2.32,0,0,0,1.42.44,2.36,2.36,0,0,0,1.61-.51,1.68,1.68,0,0,0,.69-1.36,1.27,1.27,0,0,0,0-.35V47a.28.28,0,0,1,0-.12.29.29,0,0,0,0-.12,2.07,2.07,0,0,0-.92-1,1.43,1.43,0,0,0-.32-.14l0,0a12,12,0,0,0-1.1-.55l-1.22-.57q-.62-.3-1.22-.64a6.72,6.72,0,0,1-1.13-.8v0L89,42.94a5.23,5.23,0,0,1-1.17-1.65,4.43,4.43,0,0,1-.39-2,4.73,4.73,0,0,1,.5-2,5.22,5.22,0,0,1,1.22-1.59,5.76,5.76,0,0,1,1.79-1.06,5.66,5.66,0,0,1,2.2-.35,6.22,6.22,0,0,1,2.75.74,5.18,5.18,0,0,1,1.93,1.81l-3,2.05a1.81,1.81,0,0,0-.69-.67A2.08,2.08,0,0,0,93,37.94a2.15,2.15,0,0,0-1.4.39,1.24,1.24,0,0,0-.58,1,.6.6,0,0,0,0,.25,1.24,1.24,0,0,0,.35.67,2.16,2.16,0,0,0,.71.46q.67.39,1.54.8t1.75.9a5.5,5.5,0,0,1,1.28.81l.18.18A7.28,7.28,0,0,1,97.69,44.28Z"/>
        </g>
      </g>
    </g>
  </g>
</svg>
